<svg xmlns="http://www.w3.org/2000/svg" version="1.1" xmlns:xlink="http://www.w3.org/1999/xlink" xmlns:svgjs="http://svgjs.dev/svgjs" width="1500" height="939" viewBox="0 0 1500 939"><g transform="matrix(1,0,0,1,-0.9090909090909918,-1.5145161290323017)"><svg viewBox="0 0 396 248" data-background-color="#ffffff" preserveAspectRatio="xMidYMid meet" height="939" width="1500" xmlns="http://www.w3.org/2000/svg" xmlns:xlink="http://www.w3.org/1999/xlink"><g id="tight-bounds" transform="matrix(1,0,0,1,0.2400000000000091,0.4000000000000057)"><svg viewBox="0 0 395.52 247.2" height="247.2" width="395.52"><g><svg></svg></g><g><svg viewBox="0 0 395.52 247.2" height="247.2" width="395.52"><g transform="matrix(1,0,0,1,75.54432,63.32445316129033)"><svg viewBox="0 0 244.43135999999998 120.55109367741933" height="120.55109367741933" width="244.43135999999998"><g><svg viewBox="0 0 244.43135999999998 120.55109367741933" height="120.55109367741933" width="244.43135999999998"><g><svg viewBox="0 0 244.43135999999998 120.55109367741933" height="120.55109367741933" width="244.43135999999998"><g><svg viewBox="0 0 244.43135999999998 120.55109367741933" height="120.55109367741933" width="244.43135999999998"><g id="textblocktransform"><svg viewBox="0 0 244.43135999999998 120.55109367741933" height="120.55109367741933" width="244.43135999999998" id="textblock"><g><svg viewBox="0 0 244.43135999999998 120.55109367741933" height="120.55109367741933" width="244.43135999999998"><g transform="matrix(1,0,0,1,0,0)"><svg width="244.43135999999998" viewBox="3.7 -34.4 69.75 34.4" height="120.55109367741933" data-palette-color="#7a26c1"><path d="M23-34.4Q26.2-34.4 28.7-32.93 31.2-31.45 32.6-28.88 34-26.3 34-23.1L34-23.1 34-22.45Q34-19.25 32.6-16.65 31.2-14.05 28.7-12.58 26.2-11.1 23-11.1L23-11.1 14.75-11.1 14.75 0 3.7 0 3.7-34.4 23-34.4ZM14.75-26.25L14.75-19.15 19.3-19.15Q21.05-19.15 21.93-20.05 22.8-20.95 22.8-22.5L22.8-22.5 22.8-22.9Q22.8-24.5 21.93-25.38 21.05-26.25 19.3-26.25L19.3-26.25 14.75-26.25ZM72.45-23.85Q72.45-20.7 70.75-18.15 69.05-15.6 65.8-14.4L65.8-14.4 73.45 0 61.05 0 54.95-12.55 50.85-12.55 50.85 0 39.8 0 39.8-34.4 60.85-34.4Q64.55-34.4 67.17-32.98 69.8-31.55 71.12-29.13 72.45-26.7 72.45-23.85L72.45-23.85ZM61.2-23.4Q61.2-24.75 60.3-25.65 59.4-26.55 58.1-26.55L58.1-26.55 50.85-26.55 50.85-20.2 58.1-20.2Q59.4-20.2 60.3-21.13 61.2-22.05 61.2-23.4L61.2-23.4Z" opacity="1" transform="matrix(1,0,0,1,0,0)" fill="#7a26c1" class="wordmark-text-0" data-fill-palette-color="primary" id="text-0"></path></svg></g></svg></g></svg></g></svg></g></svg></g></svg></g></svg></g><path d="M155.979 57.324L155.979 9.523 384.133 9.523 384.133 237.677 155.979 237.677 155.979 189.876 166.85 189.876 166.85 226.806 373.261 226.806 373.261 20.394 166.85 20.394 166.85 57.324Z" fill="#7a26c1" stroke="transparent" data-fill-palette-color="tertiary"></path></svg></g><defs></defs></svg><rect width="395.52" height="247.2" fill="none" stroke="none" visibility="hidden"></rect></g></svg></g></svg>